<?xml version="1.0" encoding="utf-8"?>
<!-- Generator: Adobe Illustrator 19.0.0, SVG Export Plug-In . SVG Version: 6.00 Build 0)  -->
<svg version="1.1" id="Layer_1" xmlns="http://www.w3.org/2000/svg" xmlns:xlink="http://www.w3.org/1999/xlink" x="0px" y="0px"
	 viewBox="0 0 1920 1080" style="enable-background:new 0 0 1920 1080;" xml:space="preserve">
<style type="text/css">
	.st0{fill:#F16823;}
	.st1{fill:#22428C;}
</style>
<g id="XMLID_1_">
	<g id="XMLID_4_">
		<g id="XMLID_125_">
			<path id="XMLID_127_" class="st0" d="M637.9,535.2c0,3.3-1.3,6.5-3.6,8.9l-32.6,32.6c-2.4,2.4-5.6,3.7-8.9,3.7
				c-3.4,0-6.5-1.3-8.9-3.7l-4.8-4.8l4.4-4.4l1.4-1.4l1.9-1.9l4,3.9c0.5,0.6,1.3,0.9,2,0.9c0.8,0,1.5-0.3,2-0.9l31-30.9
				c0.6-0.5,0.9-1.3,0.9-2c0-0.8-0.3-1.5-0.9-2l-30.9-31c-0.5-0.6-1.3-0.9-2-0.9c-0.8,0-1.5,0.3-2,0.9l-4,4l-1.3,1.4l-4.4,4.4
				l-1.4,1.4l-1.9,1.9l-1.3,1.4l-16.5,16.6c-1.1,1.1-1.1,2.9,0,4l16.5,16.5l-1.9,2L573,557l-4.4,4.5l-17.4-17.3
				c-2.4-2.4-3.6-5.6-3.6-8.9c0-3.4,1.3-6.5,3.6-8.9l18.7-18.7l1.9-1.9l1.4-1.4l4.4-4.4l1.4-1.4l4.8-4.8c2.4-2.4,5.6-3.7,8.9-3.7
				c3.4,0,6.5,1.3,8.9,3.7l32.6,32.6C636.6,528.6,637.9,531.8,637.9,535.2z"/>
			<path id="XMLID_126_" class="st1" d="M607.7,535.2c0,3.3-1.3,6.5-3.7,8.9l-18.7,18.7l-1.9,1.9l-1.4,1.3l-4.4,4.5l-1.4,1.3
				l-4.8,4.8c-2.4,2.4-5.6,3.7-9,3.7c-3.4,0-6.5-1.3-8.9-3.7L521,544.1c-2.4-2.4-3.6-5.6-3.6-8.9c0-3.4,1.3-6.5,3.7-8.9l32.6-32.6
				c2.4-2.4,5.5-3.7,8.9-3.7c3.3,0,6.5,1.3,9,3.7l4.8,4.8l-4.4,4.4l-1.4,1.4l-1.9,1.9l-4-4c-0.6-0.6-1.3-0.9-2-0.9
				c-0.7,0-1.5,0.3-2,0.9l-31,31c-1.1,1.1-1.1,2.9,0,4l31,30.9c0.5,0.6,1.3,0.9,2,0.9c0.8,0,1.4-0.3,2-0.9l4-3.9l1.4-1.4l4.4-4.4
				l1.4-1.4l1.9-1.9l1.4-1.4l16.5-16.5c0.6-0.5,0.9-1.3,0.9-2c0-0.8-0.3-1.5-0.9-2L579,516.6l1.9-1.9l1.4-1.4l4.4-4.4l17.4,17.3
				C606.4,528.6,607.7,531.8,607.7,535.2z"/>
		</g>
		<g id="XMLID_112_">
			<path id="XMLID_121_" class="st1" d="M703.7,545.1c-0.3,0.7-0.6,1.4-1,2.2c-0.9,1.8-2.1,3.4-3.6,5c-1.7,1.7-3.6,3-5.8,3.9
				c-2.3,0.9-4.5,1.4-6.9,1.5c-2.4,0.1-4.7-0.3-7-1c-2.3-0.7-4.3-1.9-6-3.5l31.3-31.3c-0.3-0.2-0.5-0.4-0.6-0.6
				c-0.2-0.2-0.4-0.5-0.6-0.6c-1.5-1.5-3.3-2.9-5.3-4.1c-2-1.2-4.4-2.2-7-2.8c-1.6-0.4-3.5-0.7-5.5-0.7c-2-0.1-4.1,0.1-6.1,0.5
				c-2.2,0.5-4.3,1.3-6.4,2.4c-2.2,1.1-4.2,2.5-6.1,4.4c-2.4,2.6-4.3,5.5-5.4,8.6c-1.2,3.1-1.8,6.3-1.7,9.6c0,3.3,0.7,6.4,1.9,9.5
				c1.3,3.1,3.1,5.8,5.5,8.3c2.5,2.5,5.4,4.4,8.5,5.6c3.2,1.2,6.3,1.8,9.6,1.7c3.2,0,6.4-0.6,9.5-1.9c3.1-1.3,5.9-3.1,8.2-5.5
				c2-1.9,3.6-4.1,4.7-6.5c0.5-0.9,0.8-1.8,1.1-2.6L703.7,545.1z M666,542.1c-0.6-2.4-0.6-4.7-0.4-6.9c0.3-2.2,0.9-4.3,1.9-6.3
				c0.9-1.9,2.1-3.5,3.4-4.9c1.4-1.4,3-2.5,4.9-3.5c1.9-1,3.9-1.6,6.2-1.9c2.2-0.3,4.5-0.2,6.9,0.3c2.5,0.6,4.8,1.7,7.2,3.3
				l-26.8,26.9C667.7,547,666.6,544.6,666,542.1z"/>
			<path id="XMLID_118_" class="st1" d="M719.7,514h6.2v8.5h0.2c1.4-2,3-3.7,4.6-4.9c1.7-1.3,3.3-2.3,5-3c1.7-0.7,3.4-1.3,5-1.5
				c1.6-0.3,3.1-0.4,4.4-0.4c4,0,7.6,0.7,10.8,2.1c3.2,1.4,5.9,3.3,8.2,5.7c2.3,2.3,4,5.1,5.2,8.1c1.3,3,1.9,6.2,1.9,9.4
				c0,3.5-0.6,6.9-2,9.9c-1.3,3.1-3.1,5.8-5.4,8.1c-2.4,2.3-5.1,4.2-8.3,5.5c-3.2,1.3-6.7,2-10.5,2c-1.3,0-2.7-0.1-4.3-0.4
				c-1.6-0.2-3.3-0.8-5-1.4c-1.7-0.8-3.4-1.7-5.1-3c-1.6-1.3-3.1-3-4.5-4.8H726v25.5h-6.2V514z M764.9,538.4c0-3.1-0.5-5.9-1.6-8.3
				c-1.1-2.5-2.5-4.6-4.4-6.3c-1.8-1.7-3.9-3-6.3-4c-2.4-0.9-4.9-1.4-7.6-1.4c-2.8,0-5.3,0.5-7.8,1.6c-2.4,1.1-4.4,2.6-6.2,4.4
				c-1.7,1.8-3.1,3.9-4.1,6.4c-0.9,2.4-1.4,5-1.4,7.6c0,2.9,0.5,5.5,1.6,7.9c1,2.4,2.4,4.5,4.2,6.3c1.7,1.7,3.8,3.1,6.1,4.1
				c2.4,1.1,4.9,1.6,7.5,1.6c3,0,5.6-0.5,8.1-1.6c2.5-1,4.5-2.4,6.3-4.2c1.8-1.7,3.1-3.9,4.1-6.3
				C764.4,543.7,764.9,541.1,764.9,538.4z"/>
			<path id="XMLID_115_" class="st1" d="M829.7,562.5h-6.2V554h-0.2c-1.3,2-2.9,3.6-4.5,4.8c-1.7,1.3-3.4,2.2-5.1,3
				c-1.7,0.6-3.4,1.2-5,1.4c-1.6,0.3-3,0.4-4.3,0.4c-3.9,0-7.4-0.8-10.6-2c-3.2-1.4-5.9-3.2-8.3-5.5c-2.3-2.3-4.1-5-5.4-8.1
				c-1.3-3.1-1.9-6.4-1.9-9.9c0-3.2,0.6-6.4,1.9-9.4c1.3-3.1,3-5.8,5.2-8.1c2.3-2.4,5-4.2,8.3-5.7c3.2-1.4,6.7-2.1,10.7-2.1
				c1.3,0,2.8,0.2,4.4,0.4c1.7,0.2,3.3,0.7,5,1.5c1.7,0.7,3.4,1.7,5,3c1.7,1.3,3.1,2.9,4.4,4.9h0.2V514h6.2V562.5z M784.5,538.4
				c0,2.7,0.5,5.3,1.4,7.7c1,2.4,2.3,4.5,4,6.3c1.8,1.8,3.9,3.2,6.4,4.2c2.4,1,5.2,1.6,8.1,1.6c2.6,0,5.1-0.5,7.4-1.6
				c2.4-0.9,4.5-2.4,6.2-4.1c1.8-1.7,3.2-3.8,4.2-6.3c1-2.4,1.6-5.1,1.6-7.9c0-2.7-0.5-5.2-1.5-7.6c-1-2.5-2.3-4.5-4.1-6.4
				c-1.8-1.8-3.8-3.3-6.2-4.4c-2.3-1.1-5-1.6-7.7-1.6c-2.7,0-5.2,0.5-7.6,1.4c-2.3,0.9-4.5,2.3-6.3,4c-1.8,1.7-3.3,3.9-4.3,6.3
				C785.1,532.5,784.5,535.2,784.5,538.4z"/>
			<path id="XMLID_113_" class="st1" d="M855.5,560.9L836.6,514h6.6l15.5,38.6l16.4-38.6h6.6l-28.1,65.6h-6.5L855.5,560.9z"/>
		</g>
	</g>
	<g id="Logo_Shadow_1_">
		<path id="XMLID_111_" class="st0" d="M1177.7,549.8c0,1.2-0.5,2.2-1.3,3.1l-11.2,11.2c-0.8,0.8-1.9,1.3-3.1,1.3
			c-1.1,0-2.2-0.5-3.1-1.3l-1.6-1.6l1.5-1.5l0.5-0.5l0.7-0.7l1.4,1.4c0.2,0.2,0.4,0.3,0.7,0.3c0.3,0,0.5-0.1,0.7-0.3l10.6-10.6
			c0.2-0.2,0.3-0.4,0.3-0.7c0-0.3-0.1-0.5-0.3-0.7l-10.6-10.6c-0.2-0.2-0.4-0.3-0.7-0.3c-0.2,0-0.5,0.1-0.7,0.3l-1.4,1.4l-0.5,0.5
			l-1.5,1.5l-0.5,0.5l-0.7,0.7l-0.5,0.5l-5.7,5.7c-0.4,0.4-0.4,1,0,1.4l5.7,5.7l-0.7,0.7l-0.5,0.5l-1.5,1.5l-5.9-5.9
			c-0.8-0.8-1.3-1.9-1.3-3.1c0-1.2,0.5-2.2,1.3-3.1l6.4-6.4l0.7-0.7l0.5-0.5l1.5-1.5l0.5-0.5l1.7-1.6c0.8-0.8,1.9-1.3,3.1-1.3
			c1.2,0,2.2,0.5,3.1,1.3l11.2,11.2C1177.2,547.6,1177.7,548.7,1177.7,549.8z"/>
		<path id="XMLID_110_" class="st1" d="M1167.4,549.8c0,1.2-0.4,2.2-1.3,3.1l-6.4,6.4l-0.7,0.7l-0.5,0.5l-1.5,1.5l-0.5,0.5l-1.6,1.6
			c-0.8,0.8-1.9,1.3-3.1,1.3c-1.2,0-2.2-0.5-3.1-1.3l-11.2-11.2c-0.8-0.8-1.3-1.9-1.3-3.1c0-1.2,0.4-2.2,1.3-3.1l11.2-11.2
			c0.8-0.8,1.9-1.3,3.1-1.3c1.2,0,2.2,0.5,3.1,1.3l1.6,1.6l-1.5,1.5l-0.5,0.5l-0.7,0.7l-1.4-1.4c-0.2-0.2-0.4-0.3-0.7-0.3
			c-0.3,0-0.5,0.1-0.7,0.3l-10.6,10.6c-0.4,0.4-0.4,1,0,1.4l10.6,10.6c0.2,0.2,0.4,0.3,0.7,0.3c0.3,0,0.5-0.1,0.7-0.3l1.4-1.4
			l0.5-0.5l1.5-1.5l0.5-0.5l0.7-0.7l0.5-0.5l5.7-5.7c0.2-0.2,0.3-0.4,0.3-0.7c0-0.3-0.1-0.5-0.3-0.7l-5.7-5.7l0.7-0.7l0.5-0.5
			l1.5-1.5l5.9,5.9C1166.9,547.6,1167.4,548.7,1167.4,549.8z"/>
	</g>
	<g id="XMLID_27_">
		<g id="XMLID_373_">
			<path id="XMLID_412_" class="st1" d="M906.7,558.4c-5.6,0-9.9-4.2-9.9-9.7c0-5.6,4.2-9.8,9.8-9.8c3.9,0,7.2,2,8.7,5.2h-2.1
				c-1.6-2.5-3.8-3.5-6.5-3.5c-4.5,0-7.9,3.5-7.9,8c0,4.4,3.6,8,8,8c2.8,0,4.6-1,6.6-3.5h2.1C913.4,556.6,910.5,558.4,906.7,558.4z"
				/>
			<path id="XMLID_409_" class="st1" d="M925,558.4c-4.3,0-7.5-3.1-7.5-7.4c0-4.1,3.2-7.2,7.3-7.2c4.2,0,7.2,3.1,7.2,7.3
				C932.1,555.3,929,558.4,925,558.4z M924.8,545.5c-3.1,0-5.4,2.4-5.4,5.5c0,3.3,2.3,5.6,5.5,5.6c3,0,5.2-2.3,5.2-5.5
				C930.1,547.9,927.9,545.5,924.8,545.5z"/>
			<path id="XMLID_407_" class="st1" d="M945.2,558v-7.3c0-3.8-1.7-5.2-4.3-5.2c-2.5,0-4.3,1.5-4.3,4.9v7.7h-1.9v-14h1.9v1.8
				c1.2-1.4,2.7-2.1,4.5-2.1c3.5,0,6,2.1,6,7v7.3H945.2z"/>
			<path id="XMLID_405_" class="st1" d="M960.7,558v-7.3c0-3.8-1.7-5.2-4.3-5.2c-2.5,0-4.3,1.5-4.3,4.9v7.7h-1.9v-14h1.9v1.8
				c1.2-1.4,2.6-2.1,4.5-2.1c3.5,0,6,2.1,6,7v7.3H960.7z"/>
			<path id="XMLID_402_" class="st1" d="M967.2,551.7c0.2,2.8,2.6,4.9,5.4,4.9c2.1,0,4.1-1.3,4.9-3.2h2c-0.9,2.7-3.6,4.9-6.8,4.9
				c-4.1,0-7.4-3.2-7.4-7.4c0-4.1,3.2-7.2,7.2-7.2c4.1,0,7.3,3,7.3,7.9H967.2z M972.5,545.5c-2.7,0-4.8,1.8-5.3,4.5h10.7
				C977.3,547.2,975.2,545.5,972.5,545.5z"/>
			<path id="XMLID_400_" class="st1" d="M989.5,558.4c-4.3,0-7.6-3.2-7.6-7.3c0-4.1,3.3-7.3,7.5-7.3c3.1,0,5.8,1.8,6.9,4.6h-2.1
				c-1.1-1.8-2.8-2.8-4.8-2.8c-3.1,0-5.5,2.4-5.5,5.6c0,3.1,2.5,5.6,5.6,5.6c2,0,3.3-0.8,4.8-2.7h2.1
				C994.6,557.1,992.4,558.4,989.5,558.4z"/>
			<path id="XMLID_398_" class="st1" d="M1002.5,545.8V558h-1.9v-12.2h-3v-1.7h3v-4.9h1.9v4.9h3.1v1.7H1002.5z"/>
			<path id="XMLID_395_" class="st1" d="M1007.6,542.6v-3.2h1.9v3.2H1007.6z M1007.6,558v-14h1.9v14H1007.6z"/>
			<path id="XMLID_393_" class="st1" d="M1023.1,558v-7.3c0-3.8-1.7-5.2-4.3-5.2c-2.5,0-4.3,1.5-4.3,4.9v7.7h-1.9v-14h1.9v1.8
				c1.2-1.4,2.7-2.1,4.5-2.1c3.5,0,6,2.1,6,7v7.3H1023.1z"/>
			<path id="XMLID_390_" class="st1" d="M1040.9,561c-1.2,1.6-3.2,2.5-5.7,2.5c-3.5,0-6-1.8-7-5.1h1.8c1.4,2.5,2.8,3.3,5.1,3.3
				c3.4,0,5.1-2,5.1-5.6v-0.9c-1.1,2.1-2.8,3.2-5.3,3.2c-4.1,0-7.3-3.2-7.3-7.2c0-4.2,3.1-7.4,7.1-7.4c2.3,0,4.1,0.9,5.5,2.8v-2.5
				h1.9v11.5C1042.2,558.3,1041.8,559.8,1040.9,561z M1034.9,545.5c-3.1,0-5.3,2.3-5.3,5.5c0,3.2,2.3,5.7,5.4,5.7
				c3,0,5.3-2.5,5.3-5.7C1040.3,547.9,1037.9,545.5,1034.9,545.5z"/>
			<path id="XMLID_386_" class="st1" d="M1057.5,558h-4.7v-18.8h4.4c4.6,0,6.5,1.7,6.5,4.9c0,1.9-0.6,3.1-2.1,3.9
				c2.2,0.9,3.2,2.3,3.2,4.6C1064.7,556.4,1062.7,558,1057.5,558z M1056.9,540.9h-2.3v6.4h2.3c3.5,0,4.8-0.8,4.8-3.2
				C1061.7,541.8,1060.7,540.9,1056.9,540.9z M1056.9,549h-2.2v7.3h2.6c3.9,0,5.6-0.9,5.6-3.6C1062.8,549.2,1060.3,549,1056.9,549z"
				/>
			<path id="XMLID_384_" class="st1" d="M1069,549.9v8.1h-1.9v-14h1.9v2c0.7-1.5,1.9-2.2,4-2.3v1.9
				C1070.3,545.9,1069,547.3,1069,549.9z"/>
			<path id="XMLID_381_" class="st1" d="M1086.3,558v-2.4c-1.5,2-3,2.8-5.4,2.8c-4.3,0-7.5-3.1-7.5-7.3c0-4.2,3.2-7.3,7.3-7.3
				c2.4,0,4.1,0.9,5.5,2.8v-2.5h1.9v14H1086.3z M1080.9,545.5c-3,0-5.5,2.4-5.5,5.5c0,3.2,2.4,5.7,5.6,5.7c3,0,5.4-2.5,5.4-5.6
				C1086.3,547.9,1083.9,545.5,1080.9,545.5z"/>
			<path id="XMLID_379_" class="st1" d="M1101.9,558v-7.3c0-3.8-1.7-5.2-4.3-5.2c-2.5,0-4.3,1.5-4.3,4.9v7.7h-1.9v-14h1.9v1.8
				c1.2-1.4,2.7-2.1,4.5-2.1c3.5,0,6,2.1,6,7v7.3H1101.9z"/>
			<path id="XMLID_376_" class="st1" d="M1119.4,558v-2.5c-1.4,2-3,2.9-5.3,2.9c-4.3,0-7.6-3.2-7.6-7.3c0-4.2,3.2-7.3,7.4-7.3
				c2.2,0,4.1,0.9,5.5,2.6v-7.1h1.9V558H1119.4z M1113.8,545.5c-3,0-5.5,2.4-5.5,5.5c0,3.2,2.5,5.6,5.6,5.6c3,0,5.4-2.5,5.4-5.6
				C1119.4,548,1116.9,545.5,1113.8,545.5z"/>
			<path id="XMLID_374_" class="st1" d="M1127.8,558.4c-2.7,0-4.5-1.7-4.5-4.4h1.9c0,1.7,1.1,2.7,2.6,2.7c1.4,0,2.3-1,2.3-2.4
				c0-1.4-0.7-1.9-2.7-2.7c-2-0.8-2-0.8-2.6-1.4c-0.7-0.6-1-1.5-1-2.5c0-2.3,1.7-3.9,4-3.9c2.2,0,3.9,1.5,3.9,3.8h-1.9
				c0-1.3-0.8-2-2-2c-1.1,0-2,0.9-2,2c0,0.8,0.4,1.4,1.3,1.8c0.4,0.2,0.5,0.3,2.6,1.1c1.6,0.7,2.4,1.9,2.4,3.6
				C1132.1,556.6,1130.3,558.4,1127.8,558.4z"/>
		</g>
	</g>
	<g id="XMLID_6_">
		<path id="XMLID_25_" class="st0" d="M1192.4,558.4c-5.6,0-9.9-4.2-9.9-9.7c0-5.6,4.2-9.8,9.8-9.8c3.9,0,7.2,2,8.7,5.2h-2.1
			c-1.6-2.5-3.8-3.5-6.5-3.5c-4.5,0-7.9,3.5-7.9,8c0,4.4,3.6,8,8,8c2.8,0,4.6-1,6.6-3.5h2.1C1199.1,556.6,1196.2,558.4,1192.4,558.4
			z"/>
		<path id="XMLID_22_" class="st0" d="M1210.6,558.4c-4.3,0-7.5-3.1-7.5-7.4c0-4.1,3.2-7.2,7.3-7.2c4.2,0,7.2,3.1,7.2,7.3
			C1217.7,555.3,1214.7,558.4,1210.6,558.4z M1210.5,545.5c-3.1,0-5.4,2.4-5.4,5.5c0,3.3,2.3,5.6,5.5,5.6c3,0,5.2-2.3,5.2-5.5
			C1215.8,547.9,1213.5,545.5,1210.5,545.5z"/>
		<path id="XMLID_20_" class="st0" d="M1230.8,558v-7.3c0-3.8-1.7-5.2-4.3-5.2c-2.5,0-4.3,1.5-4.3,4.9v7.7h-1.9v-14h1.9v1.8
			c1.2-1.4,2.7-2.1,4.5-2.1c3.5,0,6,2.1,6,7v7.3H1230.8z"/>
		<path id="XMLID_18_" class="st0" d="M1239.3,558.4c-2.7,0-4.5-1.7-4.5-4.4h1.9c0,1.7,1.1,2.7,2.6,2.7c1.4,0,2.3-1,2.3-2.4
			c0-1.4-0.7-1.9-2.7-2.7c-2-0.8-2-0.8-2.6-1.4c-0.7-0.6-1-1.5-1-2.5c0-2.3,1.7-3.9,4-3.9c2.2,0,3.9,1.5,3.9,3.8h-1.9
			c0-1.3-0.8-2-2-2c-1.1,0-2,0.9-2,2c0,0.8,0.4,1.4,1.3,1.8c0.4,0.2,0.5,0.3,2.6,1.1c1.6,0.7,2.4,1.9,2.4,3.6
			C1243.5,556.6,1241.8,558.4,1239.3,558.4z"/>
		<path id="XMLID_16_" class="st0" d="M1256.2,558v-2.2c-0.9,1.7-2.3,2.5-4.5,2.5c-3.5,0-5.9-1.9-5.9-6.8v-7.5h1.9v7.5
			c0,3.5,1.5,5,4.2,5c2.5,0,4.3-1.6,4.3-5.4v-7.2h1.9v14H1256.2z"/>
		<path id="XMLID_14_" class="st0" d="M1280.2,558V550c0-3.1-1.4-4.5-3.7-4.5c-2.2,0-3.8,1.3-3.8,4.5v8.1h-1.9v-8.1
			c0-3.1-1.6-4.4-3.8-4.4c-2.3,0-3.8,1.6-3.8,4.4v8.1h-1.9v-14h1.9v1.6c1.1-1.4,2.2-1.9,3.9-1.9c2.1,0,3.5,0.8,4.6,2.7
			c1.2-1.9,2.7-2.7,4.8-2.7c3.2,0,5.5,2,5.5,6v8.3H1280.2z"/>
		<path id="XMLID_11_" class="st0" d="M1286.6,551.7c0.2,2.8,2.6,4.9,5.4,4.9c2.1,0,4.1-1.3,4.9-3.2h2c-0.9,2.7-3.6,4.9-6.8,4.9
			c-4.1,0-7.4-3.2-7.4-7.4c0-4.1,3.2-7.2,7.2-7.2c4.1,0,7.3,3,7.3,7.9H1286.6z M1292,545.5c-2.7,0-4.8,1.8-5.3,4.5h10.7
			C1296.7,547.2,1294.7,545.5,1292,545.5z"/>
		<path id="XMLID_9_" class="st0" d="M1303.7,549.9v8.1h-1.9v-14h1.9v2c0.7-1.5,1.9-2.2,3.9-2.3v1.9
			C1305.1,545.9,1303.7,547.3,1303.7,549.9z"/>
		<path id="XMLID_7_" class="st0" d="M1313.1,558.4c-2.7,0-4.5-1.7-4.5-4.4h1.9c0,1.7,1.1,2.7,2.6,2.7c1.3,0,2.3-1,2.3-2.4
			c0-1.4-0.7-1.9-2.7-2.7c-2-0.8-2-0.8-2.6-1.4c-0.7-0.6-1-1.5-1-2.5c0-2.3,1.7-3.9,4-3.9c2.2,0,3.9,1.5,3.9,3.8h-1.9
			c0-1.3-0.8-2-2-2c-1.1,0-2,0.9-2,2c0,0.8,0.4,1.4,1.3,1.8c0.4,0.2,0.5,0.3,2.6,1.1c1.6,0.7,2.4,1.9,2.4,3.6
			C1317.4,556.6,1315.6,558.4,1313.1,558.4z"/>
	</g>
</g>
</svg>
