<?xml version="1.0" encoding="utf-8"?>
<!-- Generator: Adobe Illustrator 19.0.0, SVG Export Plug-In . SVG Version: 6.00 Build 0)  -->
<svg version="1.1" id="Layer_1" xmlns="http://www.w3.org/2000/svg" xmlns:xlink="http://www.w3.org/1999/xlink" x="0px" y="0px"
	 viewBox="555 492.5 810 95" style="enable-background:new 555 492.5 810 95;" xml:space="preserve">
<style type="text/css">
	.st0{fill:#F16823;}
	.st1{fill:#22428C;}
</style>
<g id="XMLID_1_">
	<g id="XMLID_4_">
		<g id="XMLID_125_">
			<path id="XMLID_127_" class="st0" d="M680.5,540c0,3.3-1.3,6.5-3.6,8.9l-32.6,32.6c-2.4,2.4-5.6,3.7-8.9,3.7
				c-3.4,0-6.5-1.3-8.9-3.7l-4.8-4.8l4.4-4.4l1.4-1.4l1.9-1.9l4,3.9c0.5,0.6,1.3,0.9,2,0.9c0.8,0,1.5-0.3,2-0.9l31-30.9
				c0.6-0.5,0.9-1.3,0.9-2c0-0.8-0.3-1.5-0.9-2l-30.9-31c-0.5-0.6-1.3-0.9-2-0.9c-0.8,0-1.5,0.3-2,0.9l-4,4l-1.3,1.4l-4.4,4.4
				l-1.4,1.4l-1.9,1.9l-1.3,1.4l-16.5,16.6c-1.1,1.1-1.1,2.9,0,4l16.5,16.5l-1.9,2l-1.7,1.2l-4.4,4.5L593.8,549
				c-2.4-2.4-3.6-5.6-3.6-8.9c0-3.4,1.3-6.5,3.6-8.9l18.7-18.7l1.9-1.9l1.4-1.4l4.4-4.4l1.4-1.4l4.8-4.8c2.4-2.4,5.6-3.7,8.9-3.7
				c3.4,0,6.5,1.3,8.9,3.7l32.6,32.6C679.2,533.4,680.5,536.6,680.5,540z"/>
			<path id="XMLID_126_" class="st1" d="M650.3,540c0,3.3-1.3,6.5-3.7,8.9l-18.7,18.7l-1.9,1.9l-1.4,1.3l-4.4,4.5l-1.4,1.3l-4.8,4.8
				c-2.4,2.4-5.6,3.7-9,3.7s-6.5-1.3-8.9-3.7l-32.5-32.5c-2.4-2.4-3.6-5.6-3.6-8.9c0-3.4,1.3-6.5,3.7-8.9l32.6-32.6
				c2.4-2.4,5.5-3.7,8.9-3.7c3.3,0,6.5,1.3,9,3.7l4.8,4.8l-4.4,4.4l-1.4,1.4l-1.9,1.9l-4-4c-0.6-0.6-1.3-0.9-2-0.9s-1.5,0.3-2,0.9
				l-31,31c-1.1,1.1-1.1,2.9,0,4l31,30.9c0.5,0.6,1.3,0.9,2,0.9c0.8,0,1.4-0.3,2-0.9l4-3.9l1.4-1.4l4.4-4.4l1.4-1.4l1.9-1.9l1.4-1.4
				l16.5-16.5c0.6-0.5,0.9-1.3,0.9-2c0-0.8-0.3-1.5-0.9-2l-16.7-16.6l1.9-1.9l1.4-1.4l4.4-4.4l17.4,17.3
				C649,533.4,650.3,536.6,650.3,540z"/>
		</g>
		<g id="XMLID_112_">
			<path id="XMLID_121_" class="st1" d="M746.3,549.9c-0.3,0.7-0.6,1.4-1,2.2c-0.9,1.8-2.1,3.4-3.6,5c-1.7,1.7-3.6,3-5.8,3.9
				c-2.3,0.9-4.5,1.4-6.9,1.5s-4.7-0.3-7-1s-4.3-1.9-6-3.5l31.3-31.3c-0.3-0.2-0.5-0.4-0.6-0.6c-0.2-0.2-0.4-0.5-0.6-0.6
				c-1.5-1.5-3.3-2.9-5.3-4.1c-2-1.2-4.4-2.2-7-2.8c-1.6-0.4-3.5-0.7-5.5-0.7c-2-0.1-4.1,0.1-6.1,0.5c-2.2,0.5-4.3,1.3-6.4,2.4
				c-2.2,1.1-4.2,2.5-6.1,4.4c-2.4,2.6-4.3,5.5-5.4,8.6c-1.2,3.1-1.8,6.3-1.7,9.6c0,3.3,0.7,6.4,1.9,9.5c1.3,3.1,3.1,5.8,5.5,8.3
				c2.5,2.5,5.4,4.4,8.5,5.6c3.2,1.2,6.3,1.8,9.6,1.7c3.2,0,6.4-0.6,9.5-1.9c3.1-1.3,5.9-3.1,8.2-5.5c2-1.9,3.6-4.1,4.7-6.5
				c0.5-0.9,0.8-1.8,1.1-2.6L746.3,549.9z M708.6,546.9c-0.6-2.4-0.6-4.7-0.4-6.9c0.3-2.2,0.9-4.3,1.9-6.3c0.9-1.9,2.1-3.5,3.4-4.9
				c1.4-1.4,3-2.5,4.9-3.5s3.9-1.6,6.2-1.9c2.2-0.3,4.5-0.2,6.9,0.3c2.5,0.6,4.8,1.7,7.2,3.3l-26.8,26.9
				C710.3,551.8,709.2,549.4,708.6,546.9z"/>
			<path id="XMLID_118_" class="st1" d="M762.3,518.8h6.2v8.5h0.2c1.4-2,3-3.7,4.6-4.9c1.7-1.3,3.3-2.3,5-3s3.4-1.3,5-1.5
				c1.6-0.3,3.1-0.4,4.4-0.4c4,0,7.6,0.7,10.8,2.1c3.2,1.4,5.9,3.3,8.2,5.7c2.3,2.3,4,5.1,5.2,8.1c1.3,3,1.9,6.2,1.9,9.4
				c0,3.5-0.6,6.9-2,9.9c-1.3,3.1-3.1,5.8-5.4,8.1c-2.4,2.3-5.1,4.2-8.3,5.5s-6.7,2-10.5,2c-1.3,0-2.7-0.1-4.3-0.4
				c-1.6-0.2-3.3-0.8-5-1.4c-1.7-0.8-3.4-1.7-5.1-3c-1.6-1.3-3.1-3-4.5-4.8h-0.1v25.5h-6.2L762.3,518.8L762.3,518.8z M807.5,543.2
				c0-3.1-0.5-5.9-1.6-8.3c-1.1-2.5-2.5-4.6-4.4-6.3c-1.8-1.7-3.9-3-6.3-4c-2.4-0.9-4.9-1.4-7.6-1.4c-2.8,0-5.3,0.5-7.8,1.6
				c-2.4,1.1-4.4,2.6-6.2,4.4c-1.7,1.8-3.1,3.9-4.1,6.4c-0.9,2.4-1.4,5-1.4,7.6c0,2.9,0.5,5.5,1.6,7.9c1,2.4,2.4,4.5,4.2,6.3
				c1.7,1.7,3.8,3.1,6.1,4.1c2.4,1.1,4.9,1.6,7.5,1.6c3,0,5.6-0.5,8.1-1.6c2.5-1,4.5-2.4,6.3-4.2c1.8-1.7,3.1-3.9,4.1-6.3
				C807,548.5,807.5,545.9,807.5,543.2z"/>
			<path id="XMLID_115_" class="st1" d="M872.3,567.3h-6.2v-8.5h-0.2c-1.3,2-2.9,3.6-4.5,4.8c-1.7,1.3-3.4,2.2-5.1,3
				c-1.7,0.6-3.4,1.2-5,1.4c-1.6,0.3-3,0.4-4.3,0.4c-3.9,0-7.4-0.8-10.6-2c-3.2-1.4-5.9-3.2-8.3-5.5c-2.3-2.3-4.1-5-5.4-8.1
				c-1.3-3.1-1.9-6.4-1.9-9.9c0-3.2,0.6-6.4,1.9-9.4c1.3-3.1,3-5.8,5.2-8.1c2.3-2.4,5-4.2,8.3-5.7c3.2-1.4,6.7-2.1,10.7-2.1
				c1.3,0,2.8,0.2,4.4,0.4c1.7,0.2,3.3,0.7,5,1.5c1.7,0.7,3.4,1.7,5,3c1.7,1.3,3.1,2.9,4.4,4.9h0.2v-8.6h6.2v48.5H872.3z
				 M827.1,543.2c0,2.7,0.5,5.3,1.4,7.7c1,2.4,2.3,4.5,4,6.3c1.8,1.8,3.9,3.2,6.4,4.2c2.4,1,5.2,1.6,8.1,1.6c2.6,0,5.1-0.5,7.4-1.6
				c2.4-0.9,4.5-2.4,6.2-4.1c1.8-1.7,3.2-3.8,4.2-6.3c1-2.4,1.6-5.1,1.6-7.9c0-2.7-0.5-5.2-1.5-7.6c-1-2.5-2.3-4.5-4.1-6.4
				c-1.8-1.8-3.8-3.3-6.2-4.4c-2.3-1.1-5-1.6-7.7-1.6s-5.2,0.5-7.6,1.4c-2.3,0.9-4.5,2.3-6.3,4s-3.3,3.9-4.3,6.3
				C827.7,537.3,827.1,540,827.1,543.2z"/>
			<path id="XMLID_113_" class="st1" d="M898.1,565.7l-18.9-46.9h6.6l15.5,38.6l16.4-38.6h6.6l-28.1,65.6h-6.5L898.1,565.7z"/>
		</g>
	</g>
	<g id="Logo_Shadow_1_">
		<path id="XMLID_111_" class="st0" d="M1220.3,554.6c0,1.2-0.5,2.2-1.3,3.1l-11.2,11.2c-0.8,0.8-1.9,1.3-3.1,1.3
			c-1.1,0-2.2-0.5-3.1-1.3l-1.6-1.6l1.5-1.5l0.5-0.5l0.7-0.7l1.4,1.4c0.2,0.2,0.4,0.3,0.7,0.3c0.3,0,0.5-0.1,0.7-0.3l10.6-10.6
			c0.2-0.2,0.3-0.4,0.3-0.7s-0.1-0.5-0.3-0.7l-10.6-10.6c-0.2-0.2-0.4-0.3-0.7-0.3c-0.2,0-0.5,0.1-0.7,0.3l-1.4,1.4l-0.5,0.5
			l-1.5,1.5l-0.5,0.5l-0.7,0.7l-0.5,0.5l-5.7,5.7c-0.4,0.4-0.4,1,0,1.4l5.7,5.7l-0.7,0.7l-0.5,0.5l-1.5,1.5l-5.9-5.9
			c-0.8-0.8-1.3-1.9-1.3-3.1c0-1.2,0.5-2.2,1.3-3.1l6.4-6.4l0.7-0.7l0.5-0.5l1.5-1.5l0.5-0.5l1.7-1.6c0.8-0.8,1.9-1.3,3.1-1.3
			s2.2,0.5,3.1,1.3l11.2,11.2C1219.8,552.4,1220.3,553.5,1220.3,554.6z"/>
		<path id="XMLID_110_" class="st1" d="M1210,554.6c0,1.2-0.4,2.2-1.3,3.1l-6.4,6.4l-0.7,0.7l-0.5,0.5l-1.5,1.5l-0.5,0.5l-1.6,1.6
			c-0.8,0.8-1.9,1.3-3.1,1.3s-2.2-0.5-3.1-1.3l-11.2-11.2c-0.8-0.8-1.3-1.9-1.3-3.1c0-1.2,0.4-2.2,1.3-3.1l11.2-11.2
			c0.8-0.8,1.9-1.3,3.1-1.3s2.2,0.5,3.1,1.3l1.6,1.6l-1.5,1.5l-0.5,0.5l-0.7,0.7l-1.4-1.4c-0.2-0.2-0.4-0.3-0.7-0.3
			c-0.3,0-0.5,0.1-0.7,0.3l-10.6,10.6c-0.4,0.4-0.4,1,0,1.4l10.6,10.6c0.2,0.2,0.4,0.3,0.7,0.3s0.5-0.1,0.7-0.3l1.4-1.4l0.5-0.5
			l1.5-1.5l0.5-0.5l0.7-0.7l0.5-0.5l5.7-5.7c0.2-0.2,0.3-0.4,0.3-0.7s-0.1-0.5-0.3-0.7l-5.7-5.7l0.7-0.7l0.5-0.5l1.5-1.5l5.9,5.9
			C1209.5,552.4,1210,553.5,1210,554.6z"/>
	</g>
	<g id="XMLID_27_">
		<g id="XMLID_373_">
			<path id="XMLID_412_" class="st1" d="M949.3,563.2c-5.6,0-9.9-4.2-9.9-9.7c0-5.6,4.2-9.8,9.8-9.8c3.9,0,7.2,2,8.7,5.2h-2.1
				c-1.6-2.5-3.8-3.5-6.5-3.5c-4.5,0-7.9,3.5-7.9,8c0,4.4,3.6,8,8,8c2.8,0,4.6-1,6.6-3.5h2.1C956,561.4,953.1,563.2,949.3,563.2z"/>
			<path id="XMLID_409_" class="st1" d="M967.6,563.2c-4.3,0-7.5-3.1-7.5-7.4c0-4.1,3.2-7.2,7.3-7.2c4.2,0,7.2,3.1,7.2,7.3
				C974.7,560.1,971.6,563.2,967.6,563.2z M967.4,550.3c-3.1,0-5.4,2.4-5.4,5.5c0,3.3,2.3,5.6,5.5,5.6c3,0,5.2-2.3,5.2-5.5
				C972.7,552.7,970.5,550.3,967.4,550.3z"/>
			<path id="XMLID_407_" class="st1" d="M987.8,562.8v-7.3c0-3.8-1.7-5.2-4.3-5.2c-2.5,0-4.3,1.5-4.3,4.9v7.7h-1.9v-14h1.9v1.8
				c1.2-1.4,2.7-2.1,4.5-2.1c3.5,0,6,2.1,6,7v7.3h-1.9V562.8z"/>
			<path id="XMLID_405_" class="st1" d="M1003.3,562.8v-7.3c0-3.8-1.7-5.2-4.3-5.2c-2.5,0-4.3,1.5-4.3,4.9v7.7h-1.9v-14h1.9v1.8
				c1.2-1.4,2.6-2.1,4.5-2.1c3.5,0,6,2.1,6,7v7.3h-1.9V562.8z"/>
			<path id="XMLID_402_" class="st1" d="M1009.8,556.5c0.2,2.8,2.6,4.9,5.4,4.9c2.1,0,4.1-1.3,4.9-3.2h2c-0.9,2.7-3.6,4.9-6.8,4.9
				c-4.1,0-7.4-3.2-7.4-7.4c0-4.1,3.2-7.2,7.2-7.2c4.1,0,7.3,3,7.3,7.9L1009.8,556.5L1009.8,556.5z M1015.1,550.3
				c-2.7,0-4.8,1.8-5.3,4.5h10.7C1019.9,552,1017.8,550.3,1015.1,550.3z"/>
			<path id="XMLID_400_" class="st1" d="M1032.1,563.2c-4.3,0-7.6-3.2-7.6-7.3s3.3-7.3,7.5-7.3c3.1,0,5.8,1.8,6.9,4.6h-2.1
				c-1.1-1.8-2.8-2.8-4.8-2.8c-3.1,0-5.5,2.4-5.5,5.6c0,3.1,2.5,5.6,5.6,5.6c2,0,3.3-0.8,4.8-2.7h2.1
				C1037.2,561.9,1035,563.2,1032.1,563.2z"/>
			<path id="XMLID_398_" class="st1" d="M1045.1,550.6v12.2h-1.9v-12.2h-3v-1.7h3V544h1.9v4.9h3.1v1.7H1045.1z"/>
			<path id="XMLID_395_" class="st1" d="M1050.2,547.4v-3.2h1.9v3.2H1050.2z M1050.2,562.8v-14h1.9v14H1050.2z"/>
			<path id="XMLID_393_" class="st1" d="M1065.7,562.8v-7.3c0-3.8-1.7-5.2-4.3-5.2c-2.5,0-4.3,1.5-4.3,4.9v7.7h-1.9v-14h1.9v1.8
				c1.2-1.4,2.7-2.1,4.5-2.1c3.5,0,6,2.1,6,7v7.3h-1.9V562.8z"/>
			<path id="XMLID_390_" class="st1" d="M1083.5,565.8c-1.2,1.6-3.2,2.5-5.7,2.5c-3.5,0-6-1.8-7-5.1h1.8c1.4,2.5,2.8,3.3,5.1,3.3
				c3.4,0,5.1-2,5.1-5.6V560c-1.1,2.1-2.8,3.2-5.3,3.2c-4.1,0-7.3-3.2-7.3-7.2c0-4.2,3.1-7.4,7.1-7.4c2.3,0,4.1,0.9,5.5,2.8v-2.5
				h1.9v11.5C1084.8,563.1,1084.4,564.6,1083.5,565.8z M1077.5,550.3c-3.1,0-5.3,2.3-5.3,5.5s2.3,5.7,5.4,5.7c3,0,5.3-2.5,5.3-5.7
				C1082.9,552.7,1080.5,550.3,1077.5,550.3z"/>
			<path id="XMLID_386_" class="st1" d="M1100.1,562.8h-4.7V544h4.4c4.6,0,6.5,1.7,6.5,4.9c0,1.9-0.6,3.1-2.1,3.9
				c2.2,0.9,3.2,2.3,3.2,4.6C1107.3,561.2,1105.3,562.8,1100.1,562.8z M1099.5,545.7h-2.3v6.4h2.3c3.5,0,4.8-0.8,4.8-3.2
				C1104.3,546.6,1103.3,545.7,1099.5,545.7z M1099.5,553.8h-2.2v7.3h2.6c3.9,0,5.6-0.9,5.6-3.6
				C1105.4,554,1102.9,553.8,1099.5,553.8z"/>
			<path id="XMLID_384_" class="st1" d="M1111.6,554.7v8.1h-1.9v-14h1.9v2c0.7-1.5,1.9-2.2,4-2.3v1.9
				C1112.9,550.7,1111.6,552.1,1111.6,554.7z"/>
			<path id="XMLID_381_" class="st1" d="M1128.9,562.8v-2.4c-1.5,2-3,2.8-5.4,2.8c-4.3,0-7.5-3.1-7.5-7.3s3.2-7.3,7.3-7.3
				c2.4,0,4.1,0.9,5.5,2.8v-2.5h1.9v14L1128.9,562.8L1128.9,562.8z M1123.5,550.3c-3,0-5.5,2.4-5.5,5.5c0,3.2,2.4,5.7,5.6,5.7
				c3,0,5.4-2.5,5.4-5.6C1128.9,552.7,1126.5,550.3,1123.5,550.3z"/>
			<path id="XMLID_379_" class="st1" d="M1144.5,562.8v-7.3c0-3.8-1.7-5.2-4.3-5.2c-2.5,0-4.3,1.5-4.3,4.9v7.7h-1.9v-14h1.9v1.8
				c1.2-1.4,2.7-2.1,4.5-2.1c3.5,0,6,2.1,6,7v7.3h-1.9V562.8z"/>
			<path id="XMLID_376_" class="st1" d="M1162,562.8v-2.5c-1.4,2-3,2.9-5.3,2.9c-4.3,0-7.6-3.2-7.6-7.3c0-4.2,3.2-7.3,7.4-7.3
				c2.2,0,4.1,0.9,5.5,2.6v-7.1h1.9v18.7H1162z M1156.4,550.3c-3,0-5.5,2.4-5.5,5.5c0,3.2,2.5,5.6,5.6,5.6c3,0,5.4-2.5,5.4-5.6
				C1162,552.8,1159.5,550.3,1156.4,550.3z"/>
			<path id="XMLID_374_" class="st1" d="M1170.4,563.2c-2.7,0-4.5-1.7-4.5-4.4h1.9c0,1.7,1.1,2.7,2.6,2.7c1.4,0,2.3-1,2.3-2.4
				s-0.7-1.9-2.7-2.7s-2-0.8-2.6-1.4c-0.7-0.6-1-1.5-1-2.5c0-2.3,1.7-3.9,4-3.9c2.2,0,3.9,1.5,3.9,3.8h-1.9c0-1.3-0.8-2-2-2
				c-1.1,0-2,0.9-2,2c0,0.8,0.4,1.4,1.3,1.8c0.4,0.2,0.5,0.3,2.6,1.1c1.6,0.7,2.4,1.9,2.4,3.6
				C1174.7,561.4,1172.9,563.2,1170.4,563.2z"/>
		</g>
	</g>
	<g id="XMLID_6_">
		<path id="XMLID_25_" class="st0" d="M1235,563.2c-5.6,0-9.9-4.2-9.9-9.7c0-5.6,4.2-9.8,9.8-9.8c3.9,0,7.2,2,8.7,5.2h-2.1
			c-1.6-2.5-3.8-3.5-6.5-3.5c-4.5,0-7.9,3.5-7.9,8c0,4.4,3.6,8,8,8c2.8,0,4.6-1,6.6-3.5h2.1C1241.7,561.4,1238.8,563.2,1235,563.2z"
			/>
		<path id="XMLID_22_" class="st0" d="M1253.2,563.2c-4.3,0-7.5-3.1-7.5-7.4c0-4.1,3.2-7.2,7.3-7.2c4.2,0,7.2,3.1,7.2,7.3
			C1260.3,560.1,1257.3,563.2,1253.2,563.2z M1253.1,550.3c-3.1,0-5.4,2.4-5.4,5.5c0,3.3,2.3,5.6,5.5,5.6c3,0,5.2-2.3,5.2-5.5
			C1258.4,552.7,1256.1,550.3,1253.1,550.3z"/>
		<path id="XMLID_20_" class="st0" d="M1273.4,562.8v-7.3c0-3.8-1.7-5.2-4.3-5.2c-2.5,0-4.3,1.5-4.3,4.9v7.7h-1.9v-14h1.9v1.8
			c1.2-1.4,2.7-2.1,4.5-2.1c3.5,0,6,2.1,6,7v7.3h-1.9V562.8z"/>
		<path id="XMLID_18_" class="st0" d="M1281.9,563.2c-2.7,0-4.5-1.7-4.5-4.4h1.9c0,1.7,1.1,2.7,2.6,2.7c1.4,0,2.3-1,2.3-2.4
			s-0.7-1.9-2.7-2.7s-2-0.8-2.6-1.4c-0.7-0.6-1-1.5-1-2.5c0-2.3,1.7-3.9,4-3.9c2.2,0,3.9,1.5,3.9,3.8h-1.9c0-1.3-0.8-2-2-2
			c-1.1,0-2,0.9-2,2c0,0.8,0.4,1.4,1.3,1.8c0.4,0.2,0.5,0.3,2.6,1.1c1.6,0.7,2.4,1.9,2.4,3.6
			C1286.1,561.4,1284.4,563.2,1281.9,563.2z"/>
		<path id="XMLID_16_" class="st0" d="M1298.8,562.8v-2.2c-0.9,1.7-2.3,2.5-4.5,2.5c-3.5,0-5.9-1.9-5.9-6.8v-7.5h1.9v7.5
			c0,3.5,1.5,5,4.2,5c2.5,0,4.3-1.6,4.3-5.4v-7.2h1.9v14h-1.9V562.8z"/>
		<path id="XMLID_14_" class="st0" d="M1322.8,562.8v-8c0-3.1-1.4-4.5-3.7-4.5c-2.2,0-3.8,1.3-3.8,4.5v8.1h-1.9v-8.1
			c0-3.1-1.6-4.4-3.8-4.4c-2.3,0-3.8,1.6-3.8,4.4v8.1h-1.9v-14h1.9v1.6c1.1-1.4,2.2-1.9,3.9-1.9c2.1,0,3.5,0.8,4.6,2.7
			c1.2-1.9,2.7-2.7,4.8-2.7c3.2,0,5.5,2,5.5,6v8.3L1322.8,562.8L1322.8,562.8z"/>
		<path id="XMLID_11_" class="st0" d="M1329.2,556.5c0.2,2.8,2.6,4.9,5.4,4.9c2.1,0,4.1-1.3,4.9-3.2h2c-0.9,2.7-3.6,4.9-6.8,4.9
			c-4.1,0-7.4-3.2-7.4-7.4c0-4.1,3.2-7.2,7.2-7.2c4.1,0,7.3,3,7.3,7.9L1329.2,556.5L1329.2,556.5z M1334.6,550.3
			c-2.7,0-4.8,1.8-5.3,4.5h10.7C1339.3,552,1337.3,550.3,1334.6,550.3z"/>
		<path id="XMLID_9_" class="st0" d="M1346.3,554.7v8.1h-1.9v-14h1.9v2c0.7-1.5,1.9-2.2,3.9-2.3v1.9
			C1347.7,550.7,1346.3,552.1,1346.3,554.7z"/>
		<path id="XMLID_7_" class="st0" d="M1355.7,563.2c-2.7,0-4.5-1.7-4.5-4.4h1.9c0,1.7,1.1,2.7,2.6,2.7c1.3,0,2.3-1,2.3-2.4
			s-0.7-1.9-2.7-2.7s-2-0.8-2.6-1.4c-0.7-0.6-1-1.5-1-2.5c0-2.3,1.7-3.9,4-3.9c2.2,0,3.9,1.5,3.9,3.8h-1.9c0-1.3-0.8-2-2-2
			c-1.1,0-2,0.9-2,2c0,0.8,0.4,1.4,1.3,1.8c0.4,0.2,0.5,0.3,2.6,1.1c1.6,0.7,2.4,1.9,2.4,3.6C1360,561.4,1358.2,563.2,1355.7,563.2z
			"/>
	</g>
</g>
</svg>
